<svg xmlns="http://www.w3.org/2000/svg" xmlns:xlink="http://www.w3.org/1999/xlink" width="1100" zoomAndPan="magnify" viewBox="0 0 824.88 374.999991" height="500" preserveAspectRatio="xMidYMid meet" version="1.0"><defs><g/><clipPath id="87485e7d70"><path d="M 6 14.488281 L 555 14.488281 L 555 244 L 6 244 Z M 6 14.488281 " clip-rule="nonzero"/></clipPath><clipPath id="bf83884f50"><path d="M 165 252 L 254 252 L 254 287.449219 L 165 287.449219 Z M 165 252 " clip-rule="nonzero"/></clipPath><clipPath id="408d774958"><path d="M 0.292969 253 L 70 253 L 70 286 L 0.292969 286 Z M 0.292969 253 " clip-rule="nonzero"/></clipPath></defs><g clip-path="url(#87485e7d70)"><path fill="#5e17eb" d="M 175.105469 174.988281 C 208.777344 169.617188 240.785156 156.398438 250.765625 121.863281 C 256.824219 100.882812 261.03125 62.304688 238.699219 48.667969 C 220.925781 37.816406 195.496094 40.609375 175.648438 40.5625 C 142.414062 40.480469 109.183594 45.339844 77.375 54.933594 C 61.585938 59.699219 48.707031 64.066406 37.742188 73.25 C 35.417969 75.199219 30.40625 79.867188 25.445312 86.917969 C 16.007812 100.328125 12.328125 114.753906 10.777344 124.183594 C 10.464844 131.519531 10.023438 147.847656 18.167969 162.125 C 20.265625 165.796875 22.777344 169.125 26.449219 171.84375 C 32.339844 176.199219 39.65625 177.792969 48.214844 178.050781 C 89.746094 179.289062 133.957031 181.550781 175.105469 174.988281 Z M 17.410156 232.761719 C 9.636719 225.046875 7.84375 214.742188 6.808594 198.519531 C 4.28125 158.875 8.378906 127.777344 10.171875 121.445312 C 10.839844 116.003906 11.957031 109.042969 13.753906 100.890625 C 16.875 86.722656 23.179688 71.03125 26.695312 59.273438 C 34.773438 32.210938 99.660156 28.066406 124.183594 23.75 C 173.753906 15.023438 210.8125 14.496094 227.214844 14.621094 C 246.65625 14.765625 258.671875 15.980469 267.644531 17.230469 C 290.292969 20.371094 308.101562 25.738281 325.03125 31.574219 C 371.511719 47.605469 407.429688 65.949219 414.605469 69.570312 C 504.101562 114.738281 555.457031 147.347656 554.566406 148.953125 C 553.753906 150.414062 511.660156 121.832031 450.230469 116.347656 C 437.09375 115.171875 405.941406 112.390625 401.976562 122.867188 C 396.34375 137.742188 449.175781 169.710938 451.535156 171.121094 C 480.886719 188.675781 507.3125 195.527344 514.699219 196.9375 C 501.484375 195.691406 427.242188 189.371094 381.109375 138.515625 C 370.917969 127.28125 358.226562 109.605469 341.984375 111.128906 C 334.308594 111.847656 327.550781 116.726562 310.683594 138.515625 C 284.378906 172.5 273.195312 196.640625 271.554688 195.902344 C 269.65625 195.039062 278.589844 159.6875 302.855469 124.171875 C 320.308594 98.628906 339.976562 81.363281 354.324219 70.566406 C 345.054688 65.945312 331.574219 60.496094 314.59375 57.65625 C 303.65625 55.828125 293.8125 55.511719 285.589844 55.847656 C 290.523438 57.921875 293.988281 62.792969 293.988281 68.480469 L 293.988281 122.296875 C 293.988281 129.859375 287.855469 135.992188 280.292969 135.992188 C 276.273438 135.992188 272.65625 134.261719 270.152344 131.503906 C 268.476562 146.4375 266.730469 161.359375 264.921875 176.273438 C 262.871094 193.253906 260.734375 210.234375 258.515625 227.199219 C 256.4375 243.292969 178.332031 241.71875 167.527344 242.191406 C 127.746094 243.929688 87.886719 243.914062 48.105469 242.140625 C 32.601562 241.445312 23.265625 238.5625 17.410156 232.761719 " fill-opacity="1" fill-rule="nonzero"/></g><path fill="#5e17eb" d="M 516.746094 197.207031 C 516.722656 197.265625 516.007812 197.1875 514.699219 196.9375 C 516.050781 197.066406 516.765625 197.140625 516.746094 197.207031 " fill-opacity="1" fill-rule="nonzero"/><g clip-path="url(#bf83884f50)"><path fill="#5e17eb" d="M 172.21875 260.933594 C 172.792969 259.203125 174.367188 258.007812 176.183594 257.90625 C 198.0625 256.710938 218.78125 254.832031 238.199219 252.496094 C 246.292969 251.523438 253.417969 257.828125 253.417969 265.976562 L 253.417969 269.234375 C 253.417969 276.203125 248.148438 282.039062 241.21875 282.75 C 218.96875 285.019531 195.058594 286.71875 169.667969 287.523438 C 166.589844 287.621094 164.355469 284.628906 165.324219 281.703125 L 172.21875 260.933594 " fill-opacity="1" fill-rule="nonzero"/></g><g clip-path="url(#408d774958)"><path fill="#5e17eb" d="M 0.878906 266.304688 C 0.882812 266.210938 0.886719 266.121094 0.890625 266.03125 C 1.265625 258.191406 8.183594 252.292969 15.980469 253.1875 C 30.1875 254.800781 45.109375 256.179688 60.699219 257.21875 C 62.65625 257.351562 64.300781 258.75 64.730469 260.671875 L 69.046875 280.054688 C 69.695312 282.945312 67.367188 285.640625 64.410156 285.429688 C 46.355469 284.140625 29.117188 282.433594 12.785156 280.429688 C 5.726562 279.566406 0.539062 273.402344 0.878906 266.304688 " fill-opacity="1" fill-rule="nonzero"/></g><path fill="#5e17eb" d="M 59.734375 80.640625 L 195.371094 144.542969 C 195.371094 144.542969 151.027344 127.59375 59.734375 80.640625 " fill-opacity="1" fill-rule="nonzero"/><path fill="#5e17eb" d="M 215.769531 144.542969 C 215.769531 144.542969 171.425781 127.59375 80.132812 80.640625 L 215.769531 144.542969 " fill-opacity="1" fill-rule="nonzero"/><g fill="#5e17eb" fill-opacity="1"><g transform="translate(286.001903, 279.703453)"><g><path d="M 16.59375 -16.703125 L 15.796875 -15.0625 C 15.796875 -13.894531 17.445312 -12.773438 20.75 -11.703125 C 24.050781 -10.628906 27.675781 -10.09375 31.625 -10.09375 C 35.570312 -10.09375 39.914062 -10.675781 44.65625 -11.84375 C 49.394531 -13.019531 53.515625 -14.457031 57.015625 -16.15625 C 60.523438 -17.863281 63.421875 -19.644531 65.703125 -21.5 C 67.992188 -23.363281 69.140625 -24.988281 69.140625 -26.375 C 69.140625 -28.113281 67.113281 -29.734375 63.0625 -31.234375 C 59.019531 -32.734375 53.140625 -34.382812 45.421875 -36.1875 C 37.703125 -37.988281 32.050781 -40.265625 28.46875 -43.015625 C 24.882812 -45.773438 23.09375 -49.128906 23.09375 -53.078125 C 23.09375 -57.023438 24.507812 -60.800781 27.34375 -64.40625 C 30.175781 -68.007812 33.867188 -71.207031 38.421875 -74 C 42.984375 -76.800781 47.957031 -79.296875 53.34375 -81.484375 C 64.488281 -85.972656 74.816406 -88.21875 84.328125 -88.21875 C 87.972656 -88.21875 91.195312 -87.894531 94 -87.25 C 99.34375 -86 102.015625 -84.335938 102.015625 -82.265625 C 102.015625 -80.203125 101.832031 -78.796875 101.46875 -78.046875 C 101.101562 -77.296875 100.804688 -76.796875 100.578125 -76.546875 C 100.359375 -76.304688 100.078125 -76.066406 99.734375 -75.828125 C 99.390625 -75.585938 99.140625 -75.40625 98.984375 -75.28125 C 97.203125 -73.78125 92.316406 -72.847656 84.328125 -72.484375 C 81.578125 -72.367188 80.078125 -72.226562 79.828125 -72.0625 C 79.585938 -71.894531 79.375 -71.8125 79.1875 -71.8125 C 79.007812 -71.8125 78.800781 -71.972656 78.5625 -72.296875 C 78.320312 -72.628906 78.203125 -73.160156 78.203125 -73.890625 C 78.203125 -74.617188 78.988281 -75.953125 80.5625 -77.890625 C 75.625 -77.609375 70.347656 -76.472656 64.734375 -74.484375 C 59.128906 -72.503906 54.257812 -70.269531 50.125 -67.78125 C 46 -65.289062 42.554688 -62.835938 39.796875 -60.421875 C 37.046875 -58.015625 35.671875 -56.3125 35.671875 -55.3125 C 35.671875 -54.320312 35.972656 -53.503906 36.578125 -52.859375 C 38.273438 -51.035156 42.992188 -49.132812 50.734375 -47.15625 C 58.753906 -45.082031 64.097656 -43.414062 66.765625 -42.15625 C 69.441406 -40.90625 71.660156 -39.710938 73.421875 -38.578125 C 75.191406 -37.441406 76.601562 -36.289062 77.65625 -35.125 C 80.125 -32.28125 81.359375 -29.398438 81.359375 -26.484375 C 81.359375 -23.566406 80.578125 -20.832031 79.015625 -18.28125 C 77.460938 -15.738281 75.113281 -13.269531 71.96875 -10.875 C 68.832031 -8.488281 65.132812 -6.363281 60.875 -4.5 C 51.5625 -0.320312 40.460938 1.765625 27.578125 1.765625 C 18.179688 1.765625 12.1875 -0.726562 9.59375 -5.71875 C 8.90625 -6.96875 8.5625 -8.269531 8.5625 -9.625 C 8.5625 -10.988281 8.875 -12.21875 9.5 -13.3125 C 10.132812 -14.40625 10.894531 -15.234375 11.78125 -15.796875 C 13.53125 -16.890625 14.769531 -17.4375 15.5 -17.4375 C 16.226562 -17.4375 16.59375 -17.191406 16.59375 -16.703125 Z M 16.59375 -16.703125 "/></g></g></g><g fill="#5e17eb" fill-opacity="1"><g transform="translate(369.177247, 279.703453)"><g><path d="M 84.875 -85.25 C 86.132812 -88.039062 87.03125 -89.4375 87.5625 -89.4375 L 87.859375 -89.4375 C 88.460938 -89.4375 89.695312 -88.785156 91.5625 -87.484375 C 93.425781 -86.191406 94.359375 -84.976562 94.359375 -83.84375 C 94.359375 -82.269531 89.171875 -70.039062 78.796875 -47.15625 C 68.429688 -24.269531 62.488281 -11.4375 60.96875 -8.65625 C 59.445312 -5.882812 58.40625 -4.03125 57.84375 -3.09375 C 57.28125 -2.164062 56.507812 -1.132812 55.53125 0 C 53.789062 2.144531 51.625 3.21875 49.03125 3.21875 C 47.976562 3.21875 47.046875 3.347656 46.234375 3.609375 C 45.429688 3.878906 44.945312 4.015625 44.78125 4.015625 C 43.488281 4.015625 42.84375 3.707031 42.84375 3.09375 C 42.84375 2.976562 43.015625 2.484375 43.359375 1.609375 C 43.703125 0.734375 48.328125 -9.097656 57.234375 -27.890625 C 47.710938 -28.253906 39.347656 -28.535156 32.140625 -28.734375 C 25.210938 -20.023438 18.9375 -10.910156 13.3125 -1.390625 C 12.625 -0.0546875 11.972656 0.878906 11.359375 1.421875 C 10.753906 1.972656 9.925781 2.25 8.875 2.25 C 7.820312 2.25 6.6875 1.710938 5.46875 0.640625 C 4.25 -0.429688 3.640625 -1.675781 3.640625 -3.09375 C 3.640625 -7.144531 8.867188 -15.816406 19.328125 -29.109375 C 14.421875 -29.109375 11.304688 -28.984375 9.984375 -28.734375 C 8.671875 -28.492188 7.832031 -28.375 7.46875 -28.375 C 6.375 -28.375 5.828125 -29.296875 5.828125 -31.140625 C 5.828125 -32.984375 6.910156 -34.601562 9.078125 -36 C 11.242188 -37.394531 14.148438 -38.09375 17.796875 -38.09375 C 18.085938 -38.09375 18.597656 -38.113281 19.328125 -38.15625 C 21.835938 -38.28125 24.40625 -38.382812 27.03125 -38.46875 C 35.863281 -48.832031 45.097656 -58.445312 54.734375 -67.3125 C 64.378906 -76.1875 72.726562 -82.40625 79.78125 -85.96875 C 80.914062 -86.539062 81.816406 -86.816406 82.484375 -86.796875 C 83.148438 -86.773438 83.945312 -86.257812 84.875 -85.25 Z M 80.625 -76.6875 C 65.84375 -65.457031 52.335938 -52.71875 40.109375 -38.46875 C 47.273438 -38.300781 54.523438 -37.992188 61.859375 -37.546875 C 69.222656 -53.066406 75.476562 -66.113281 80.625 -76.6875 Z M 80.625 -76.6875 "/></g></g></g><g fill="#5e17eb" fill-opacity="1"><g transform="translate(442.267049, 279.703453)"><g><path d="M 23.578125 -33.234375 C 22.441406 -33.234375 21.875 -33.941406 21.875 -35.359375 C 21.875 -36.410156 22.347656 -37.5625 23.296875 -38.8125 C 24.253906 -40.070312 24.832031 -40.90625 25.03125 -41.3125 C 25.238281 -41.71875 25.773438 -42.347656 26.640625 -43.203125 C 27.515625 -44.054688 28.285156 -44.5625 28.953125 -44.71875 C 29.617188 -44.882812 30.984375 -45.066406 33.046875 -45.265625 C 39.367188 -45.867188 46.257812 -46.210938 53.71875 -46.296875 C 61.8125 -58.566406 68.410156 -67.679688 73.515625 -73.640625 C 65.941406 -72.265625 56.644531 -71.578125 45.625 -71.578125 C 30.675781 -71.578125 23.203125 -74.914062 23.203125 -81.59375 C 23.203125 -83.5 24.164062 -85.160156 26.09375 -86.578125 C 28.019531 -87.992188 30.453125 -88.703125 33.390625 -88.703125 C 36.328125 -88.703125 37.796875 -88.359375 37.796875 -87.671875 C 37.796875 -87.304688 37.335938 -87.125 36.421875 -87.125 C 35.515625 -87.125 34.664062 -86.789062 33.875 -86.125 C 33.082031 -85.457031 32.6875 -84.820312 32.6875 -84.21875 C 32.6875 -83.28125 34.671875 -82.585938 38.640625 -82.140625 C 42.609375 -81.703125 48.734375 -81.484375 57.015625 -81.484375 C 65.304688 -81.484375 74.289062 -82.234375 83.96875 -83.734375 C 87.164062 -86.359375 90.171875 -88.335938 92.984375 -89.671875 C 95.804688 -91.015625 98.675781 -91.6875 101.59375 -91.6875 C 104.507812 -91.6875 106.410156 -91.035156 107.296875 -89.734375 C 108.191406 -88.441406 108.648438 -87.472656 108.671875 -86.828125 C 108.691406 -86.179688 108.210938 -85.328125 107.234375 -84.265625 C 106.265625 -83.210938 104.910156 -82.140625 103.171875 -81.046875 C 99.078125 -78.535156 93.707031 -77.039062 87.0625 -76.5625 C 79.976562 -67.601562 72.671875 -57.472656 65.140625 -46.171875 C 68.253906 -46.054688 71.164062 -45.828125 73.875 -45.484375 C 76.59375 -45.140625 77.953125 -44.078125 77.953125 -42.296875 C 77.953125 -41.566406 76.800781 -40.164062 74.5 -38.09375 C 74.25 -37.8125 73.941406 -37.390625 73.578125 -36.828125 C 72.929688 -35.847656 72.289062 -35.359375 71.65625 -35.359375 C 71.03125 -35.359375 70.316406 -35.441406 69.515625 -35.609375 C 66.347656 -35.722656 63.976562 -35.78125 62.40625 -35.78125 L 58.453125 -35.734375 C 44.191406 -13.535156 36.828125 -2 36.359375 -1.125 C 35.898438 -0.25 35.394531 0.40625 34.84375 0.84375 C 34.300781 1.289062 33.625 1.515625 32.8125 1.515625 C 32 1.515625 30.863281 1.382812 29.40625 1.125 C 27.945312 0.863281 26.851562 0.539062 26.125 0.15625 C 25.394531 -0.226562 25.03125 -0.710938 25.03125 -1.296875 C 25.03125 -1.890625 25.210938 -2.734375 25.578125 -3.828125 C 26.546875 -6.546875 33.351562 -17.015625 46 -35.234375 C 37.769531 -34.835938 31.25 -34.414062 26.4375 -33.96875 Z M 100.734375 -88.109375 C 100.085938 -87.898438 99.300781 -87.570312 98.375 -87.125 Z M 100.734375 -88.109375 "/></g></g></g><g fill="#5e17eb" fill-opacity="1"><g transform="translate(514.506265, 279.703453)"><g><path d="M 62.03125 -88.109375 L 64.890625 -88.21875 C 65.941406 -88.21875 66.46875 -87.816406 66.46875 -87.015625 C 66.46875 -86.765625 66.425781 -86.582031 66.34375 -86.46875 C 46.988281 -57.988281 28.90625 -30.078125 12.09375 -2.734375 C 11.195312 -1.273438 10.40625 -0.445312 9.71875 -0.25 C 9.675781 -0.25 9.472656 -0.164062 9.109375 0 C 7.085938 0.769531 5.671875 1.15625 4.859375 1.15625 C 4.046875 1.15625 3.601562 1.175781 3.53125 1.21875 C 3.164062 1.625 2.726562 1.828125 2.21875 1.828125 C 1.707031 1.828125 1.367188 1.816406 1.203125 1.796875 C 1.046875 1.773438 0.582031 1.609375 -0.1875 1.296875 C -0.957031 0.992188 -1.34375 0.765625 -1.34375 0.609375 C -1.34375 -1.378906 -1.257812 -2.578125 -1.09375 -2.984375 C -0.238281 -5.859375 4.4375 -13.96875 12.9375 -27.3125 C 21.445312 -40.65625 30.101562 -53.675781 38.90625 -66.375 C 47.71875 -79.070312 53.054688 -86.148438 54.921875 -87.609375 C 55.492188 -88.054688 56.242188 -88.28125 57.171875 -88.28125 Z M 62.03125 -88.109375 "/></g></g></g><g fill="#5e17eb" fill-opacity="1"><g transform="translate(549.380369, 279.703453)"><g><path d="M 38.953125 -62.40625 C 39.554688 -62.40625 39.859375 -62.0625 39.859375 -61.375 C 39.859375 -61.125 39.757812 -60.898438 39.5625 -60.703125 C 36.15625 -57.296875 32.222656 -55.59375 27.765625 -55.59375 C 26.710938 -55.59375 25.535156 -56.191406 24.234375 -57.390625 C 22.941406 -58.585938 22.296875 -60.316406 22.296875 -62.578125 C 22.296875 -64.847656 23.671875 -67.367188 26.421875 -70.140625 C 29.179688 -72.921875 33.019531 -75.554688 37.9375 -78.046875 C 42.863281 -80.535156 49.007812 -82.75 56.375 -84.6875 C 63.75 -86.632812 70.375 -87.609375 76.25 -87.609375 C 82.125 -87.609375 86.941406 -87.132812 90.703125 -86.1875 C 94.472656 -85.238281 97.421875 -84.0625 99.546875 -82.65625 C 101.679688 -81.257812 103.4375 -79.691406 104.8125 -77.953125 C 107.125 -75.035156 108.28125 -72.066406 108.28125 -69.046875 C 108.28125 -66.035156 107.304688 -62.925781 105.359375 -59.71875 C 103.410156 -56.519531 100.882812 -53.675781 97.78125 -51.1875 C 94.6875 -48.695312 91.132812 -46.378906 87.125 -44.234375 C 79.632812 -40.265625 71.613281 -37.347656 63.0625 -35.484375 C 64.519531 -33.984375 67.609375 -30.222656 72.328125 -24.203125 C 77.046875 -18.191406 81.359375 -13.160156 85.265625 -9.109375 C 89.179688 -5.054688 92.210938 -3.03125 94.359375 -3.03125 L 96.359375 -3.765625 C 96.804688 -3.765625 97.03125 -3.59375 97.03125 -3.25 C 97.03125 -2.90625 96.289062 -1.910156 94.8125 -0.265625 C 93.332031 1.367188 92.046875 2.609375 90.953125 3.453125 C 89.859375 4.304688 88.367188 4.734375 86.484375 4.734375 C 84.609375 4.734375 82.472656 3.820312 80.078125 2 C 77.691406 0.175781 75.078125 -2.390625 72.234375 -5.703125 C 69.398438 -9.023438 66.847656 -12.15625 64.578125 -15.09375 C 62.316406 -18.03125 59.726562 -21.492188 56.8125 -25.484375 C 53.894531 -29.472656 51.890625 -32.175781 50.796875 -33.59375 C 50.390625 -32.945312 49.351562 -31.335938 47.6875 -28.765625 C 46.03125 -26.191406 44.816406 -24.296875 44.046875 -23.078125 C 43.273438 -21.867188 42.160156 -20.097656 40.703125 -17.765625 C 39.242188 -15.441406 38.113281 -13.570312 37.3125 -12.15625 C 35.082031 -8.382812 33.53125 -5.566406 32.65625 -3.703125 C 31.789062 -1.835938 30.363281 -0.90625 28.375 -0.90625 L 26.25 -0.96875 L 24.421875 -0.90625 C 21.910156 -0.90625 20.65625 -1.960938 20.65625 -4.078125 C 20.65625 -5.648438 21.332031 -7.90625 22.6875 -10.84375 C 24.050781 -13.78125 31.253906 -24.738281 44.296875 -43.71875 C 57.335938 -62.695312 64.523438 -72.820312 65.859375 -74.09375 C 67.203125 -75.375 68.195312 -76.09375 68.84375 -76.25 C 69.332031 -76.613281 69.65625 -76.796875 69.8125 -76.796875 L 70.90625 -76.625 L 71.9375 -76.796875 C 72.300781 -76.796875 72.625 -76.644531 72.90625 -76.34375 C 73.195312 -76.039062 73.398438 -75.847656 73.515625 -75.765625 C 75.222656 -74.515625 76.078125 -73.460938 76.078125 -72.609375 C 76.078125 -71.753906 75.863281 -70.929688 75.4375 -70.140625 C 75.007812 -69.359375 73.84375 -67.585938 71.9375 -64.828125 C 70.03125 -62.078125 67.523438 -58.503906 64.421875 -54.109375 C 61.328125 -49.710938 59.09375 -46.519531 57.71875 -44.53125 C 61.039062 -44.695312 65.03125 -45.710938 69.6875 -47.578125 C 74.351562 -49.441406 78.71875 -51.675781 82.78125 -54.28125 C 86.851562 -56.894531 90.335938 -59.734375 93.234375 -62.796875 C 96.128906 -65.859375 97.578125 -68.519531 97.578125 -70.78125 C 97.578125 -72 96.945312 -73.101562 95.6875 -74.09375 C 94.4375 -75.09375 92.859375 -75.875 90.953125 -76.4375 C 87.148438 -77.570312 82.859375 -78.140625 78.078125 -78.140625 C 73.296875 -78.140625 67.238281 -77.101562 59.90625 -75.03125 C 52.570312 -72.96875 47.222656 -70.992188 43.859375 -69.109375 C 40.503906 -67.234375 38.078125 -65.632812 36.578125 -64.3125 C 35.078125 -63 34.328125 -62.078125 34.328125 -61.546875 C 34.328125 -61.265625 34.742188 -61.125 35.578125 -61.125 C 36.410156 -61.125 37.148438 -61.335938 37.796875 -61.765625 C 38.441406 -62.191406 38.828125 -62.40625 38.953125 -62.40625 Z M 38.953125 -62.40625 "/></g></g></g><g fill="#5e17eb" fill-opacity="1"><g transform="translate(640.636297, 279.703453)"><g><path d="M 59.421875 -86.34375 L 63.859375 -87.3125 C 64.992188 -87.3125 65.90625 -87.066406 66.59375 -86.578125 C 67.28125 -86.097656 67.625 -85.644531 67.625 -85.21875 C 67.625 -84.789062 67.519531 -84.171875 67.3125 -83.359375 C 67.113281 -82.546875 65.472656 -74.644531 62.390625 -59.65625 C 59.316406 -44.675781 57.070312 -33.5 55.65625 -26.125 C 62.539062 -35.476562 70.582031 -47 79.78125 -60.6875 C 88.976562 -74.382812 94.34375 -83.484375 95.875 -87.984375 C 96.363281 -89.398438 96.992188 -90.492188 97.765625 -91.265625 C 98.535156 -92.035156 99.222656 -92.488281 99.828125 -92.625 C 100.429688 -92.769531 101.363281 -92.84375 102.625 -92.84375 C 103.882812 -92.84375 105.375 -92.566406 107.09375 -92.015625 C 108.8125 -91.472656 109.671875 -90.570312 109.671875 -89.3125 C 109.671875 -86.925781 106.125 -80.039062 99.03125 -68.65625 C 91.945312 -57.269531 83.859375 -45.175781 74.765625 -32.375 C 65.671875 -19.582031 58.066406 -9.457031 51.953125 -2 C 50.859375 -0.664062 49.53125 0 47.96875 0 C 46.40625 0 44.765625 -0.269531 43.046875 -0.8125 C 41.328125 -1.363281 40.46875 -2.328125 40.46875 -3.703125 C 40.46875 -8.160156 44.375 -29.570312 52.1875 -67.9375 C 45.507812 -59.257812 37.390625 -47.1875 27.828125 -31.71875 C 17.859375 -15.71875 12.226562 -5.789062 10.9375 -1.9375 C 10.207031 0.363281 9.378906 1.695312 8.453125 2.0625 C 7.796875 2.34375 7.101562 2.484375 6.375 2.484375 L 1.578125 3.03125 C 0.648438 3.03125 -0.207031 2.765625 -1 2.234375 C -1.789062 1.710938 -2.1875 1.171875 -2.1875 0.609375 C -2.1875 -1.015625 0.046875 -5.851562 4.515625 -13.90625 C 8.992188 -21.96875 14.222656 -30.726562 20.203125 -40.1875 C 26.179688 -49.644531 32.429688 -58.847656 38.953125 -67.796875 C 45.472656 -76.753906 50.515625 -82.773438 54.078125 -85.859375 C 54.804688 -86.503906 55.632812 -86.828125 56.5625 -86.828125 Z M 59.421875 -86.34375 "/></g></g></g><g fill="#5e17eb" fill-opacity="1"><g transform="translate(721.138367, 279.703453)"><g><path d="M 62.03125 -88.109375 L 64.890625 -88.21875 C 65.941406 -88.21875 66.46875 -87.816406 66.46875 -87.015625 C 66.46875 -86.765625 66.425781 -86.582031 66.34375 -86.46875 C 46.988281 -57.988281 28.90625 -30.078125 12.09375 -2.734375 C 11.195312 -1.273438 10.40625 -0.445312 9.71875 -0.25 C 9.675781 -0.25 9.472656 -0.164062 9.109375 0 C 7.085938 0.769531 5.671875 1.15625 4.859375 1.15625 C 4.046875 1.15625 3.601562 1.175781 3.53125 1.21875 C 3.164062 1.625 2.726562 1.828125 2.21875 1.828125 C 1.707031 1.828125 1.367188 1.816406 1.203125 1.796875 C 1.046875 1.773438 0.582031 1.609375 -0.1875 1.296875 C -0.957031 0.992188 -1.34375 0.765625 -1.34375 0.609375 C -1.34375 -1.378906 -1.257812 -2.578125 -1.09375 -2.984375 C -0.238281 -5.859375 4.4375 -13.96875 12.9375 -27.3125 C 21.445312 -40.65625 30.101562 -53.675781 38.90625 -66.375 C 47.71875 -79.070312 53.054688 -86.148438 54.921875 -87.609375 C 55.492188 -88.054688 56.242188 -88.28125 57.171875 -88.28125 Z M 62.03125 -88.109375 "/></g></g></g><path stroke-linecap="butt" transform="matrix(0.749891, 0, 0, 0.749891, 293.337713, 293.261199)" fill="none" stroke-linejoin="miter" d="M -0.0023683 5.00142 L 630.401853 5.00142 " stroke="#5e17eb" stroke-width="10" stroke-opacity="1" stroke-miterlimit="4"/><g fill="#5e17eb" fill-opacity="1"><g transform="translate(303.724172, 340.121124)"><g><path d="M 18.375 -17.875 L 11.46875 -17.875 L 11.46875 0 L 7.3125 0 L 7.3125 -17.875 L 0.421875 -17.875 L 0.421875 -21.5625 L 18.375 -21.5625 Z M 18.375 -17.875 "/></g></g></g><g fill="#5e17eb" fill-opacity="1"><g transform="translate(334.129935, 340.121124)"><g><path d="M 11.453125 0.15625 C 9.867188 0.15625 8.429688 -0.148438 7.140625 -0.765625 C 5.859375 -1.390625 4.753906 -2.210938 3.828125 -3.234375 C 2.910156 -4.253906 2.195312 -5.421875 1.6875 -6.734375 C 1.1875 -8.054688 0.9375 -9.40625 0.9375 -10.78125 C 0.9375 -12.21875 1.203125 -13.59375 1.734375 -14.90625 C 2.273438 -16.21875 3.015625 -17.378906 3.953125 -18.390625 C 4.898438 -19.410156 6.019531 -20.21875 7.3125 -20.8125 C 8.613281 -21.40625 10.019531 -21.703125 11.53125 -21.703125 C 13.09375 -21.703125 14.515625 -21.382812 15.796875 -20.75 C 17.085938 -20.113281 18.1875 -19.28125 19.09375 -18.25 C 20.007812 -17.21875 20.71875 -16.039062 21.21875 -14.71875 C 21.726562 -13.40625 21.984375 -12.070312 21.984375 -10.71875 C 21.984375 -9.28125 21.71875 -7.90625 21.1875 -6.59375 C 20.664062 -5.289062 19.9375 -4.140625 19 -3.140625 C 18.070312 -2.140625 16.957031 -1.335938 15.65625 -0.734375 C 14.363281 -0.140625 12.960938 0.15625 11.453125 0.15625 Z M 5.1875 -10.78125 C 5.1875 -9.84375 5.328125 -8.9375 5.609375 -8.0625 C 5.898438 -7.195312 6.3125 -6.429688 6.84375 -5.765625 C 7.382812 -5.097656 8.039062 -4.5625 8.8125 -4.15625 C 9.59375 -3.75 10.476562 -3.546875 11.46875 -3.546875 C 12.488281 -3.546875 13.382812 -3.753906 14.15625 -4.171875 C 14.9375 -4.585938 15.59375 -5.140625 16.125 -5.828125 C 16.664062 -6.515625 17.070312 -7.285156 17.34375 -8.140625 C 17.625 -9.003906 17.765625 -9.882812 17.765625 -10.78125 C 17.765625 -11.707031 17.613281 -12.601562 17.3125 -13.46875 C 17.019531 -14.34375 16.601562 -15.113281 16.0625 -15.78125 C 15.53125 -16.445312 14.875 -16.976562 14.09375 -17.375 C 13.320312 -17.769531 12.445312 -17.96875 11.46875 -17.96875 C 10.457031 -17.96875 9.554688 -17.757812 8.765625 -17.34375 C 7.984375 -16.9375 7.328125 -16.390625 6.796875 -15.703125 C 6.273438 -15.023438 5.875 -14.253906 5.59375 -13.390625 C 5.320312 -12.535156 5.1875 -11.664062 5.1875 -10.78125 Z M 5.1875 -10.78125 "/></g></g></g><g fill="#5e17eb" fill-opacity="1"><g transform="translate(368.691698, 340.121124)"><g><path d="M 11.359375 -3.546875 C 12.347656 -3.546875 13.179688 -3.75 13.859375 -4.15625 C 14.535156 -4.5625 15.082031 -5.085938 15.5 -5.734375 C 15.914062 -6.378906 16.207031 -7.125 16.375 -7.96875 C 16.550781 -8.8125 16.640625 -9.675781 16.640625 -10.5625 L 16.640625 -21.5625 L 20.796875 -21.5625 L 20.796875 -10.5625 C 20.796875 -9.082031 20.617188 -7.695312 20.265625 -6.40625 C 19.910156 -5.113281 19.351562 -3.976562 18.59375 -3 C 17.832031 -2.03125 16.851562 -1.257812 15.65625 -0.6875 C 14.46875 -0.125 13.046875 0.15625 11.390625 0.15625 C 9.660156 0.15625 8.191406 -0.140625 6.984375 -0.734375 C 5.785156 -1.335938 4.8125 -2.128906 4.0625 -3.109375 C 3.3125 -4.085938 2.769531 -5.222656 2.4375 -6.515625 C 2.101562 -7.816406 1.9375 -9.164062 1.9375 -10.5625 L 1.9375 -21.5625 L 6.125 -21.5625 L 6.125 -10.5625 C 6.125 -9.65625 6.210938 -8.78125 6.390625 -7.9375 C 6.566406 -7.09375 6.859375 -6.347656 7.265625 -5.703125 C 7.679688 -5.054688 8.222656 -4.535156 8.890625 -4.140625 C 9.554688 -3.742188 10.378906 -3.546875 11.359375 -3.546875 Z M 11.359375 -3.546875 "/></g></g></g><g fill="#5e17eb" fill-opacity="1"><g transform="translate(403.071427, 340.121124)"><g><path d="M 2.25 0 L 2.25 -21.5625 L 11.78125 -21.5625 C 12.769531 -21.5625 13.679688 -21.351562 14.515625 -20.9375 C 15.359375 -20.519531 16.082031 -19.972656 16.6875 -19.296875 C 17.300781 -18.617188 17.78125 -17.847656 18.125 -16.984375 C 18.46875 -16.128906 18.640625 -15.265625 18.640625 -14.390625 C 18.640625 -12.992188 18.289062 -11.722656 17.59375 -10.578125 C 16.894531 -9.429688 15.945312 -8.609375 14.75 -8.109375 L 19.671875 0 L 14.96875 0 L 10.5625 -7.21875 L 6.4375 -7.21875 L 6.4375 0 Z M 6.4375 -10.90625 L 11.6875 -10.90625 C 12.070312 -10.90625 12.429688 -10.992188 12.765625 -11.171875 C 13.097656 -11.359375 13.382812 -11.609375 13.625 -11.921875 C 13.875 -12.234375 14.066406 -12.597656 14.203125 -13.015625 C 14.347656 -13.441406 14.421875 -13.898438 14.421875 -14.390625 C 14.421875 -14.898438 14.335938 -15.363281 14.171875 -15.78125 C 14.015625 -16.207031 13.796875 -16.578125 13.515625 -16.890625 C 13.242188 -17.203125 12.929688 -17.441406 12.578125 -17.609375 C 12.222656 -17.785156 11.863281 -17.875 11.5 -17.875 L 6.4375 -17.875 Z M 6.4375 -10.90625 "/></g></g></g><g fill="#5e17eb" fill-opacity="1"><g transform="translate(434.872644, 340.121124)"><g/></g></g><g fill="#5e17eb" fill-opacity="1"><g transform="translate(453.78122, 340.121124)"><g><path d="M 8.375 -21.5625 L 12.078125 -21.5625 L 20.28125 0 L 15.96875 0 L 13.96875 -5.375 L 6.4375 -5.375 L 4.46875 0 L 0.15625 0 Z M 13.203125 -8.3125 L 10.234375 -16.78125 L 7.140625 -8.3125 Z M 13.203125 -8.3125 "/></g></g></g><g fill="#5e17eb" fill-opacity="1"><g transform="translate(485.794789, 340.121124)"><g><path d="M 6.4375 -13.8125 L 6.4375 0 L 2.25 0 L 2.25 -21.5625 L 5.5 -21.5625 L 16.734375 -7.40625 L 16.734375 -21.53125 L 20.921875 -21.53125 L 20.921875 0 L 17.515625 0 Z M 6.4375 -13.8125 "/></g></g></g><g fill="#5e17eb" fill-opacity="1"><g transform="translate(520.56887, 340.121124)"><g><path d="M 2.25 0 L 2.25 -21.5625 L 10.078125 -21.5625 C 11.835938 -21.5625 13.378906 -21.273438 14.703125 -20.703125 C 16.035156 -20.140625 17.144531 -19.367188 18.03125 -18.390625 C 18.925781 -17.421875 19.59375 -16.285156 20.03125 -14.984375 C 20.476562 -13.679688 20.703125 -12.289062 20.703125 -10.8125 C 20.703125 -9.164062 20.453125 -7.679688 19.953125 -6.359375 C 19.460938 -5.035156 18.75 -3.898438 17.8125 -2.953125 C 16.882812 -2.015625 15.769531 -1.285156 14.46875 -0.765625 C 13.164062 -0.253906 11.703125 0 10.078125 0 Z M 16.484375 -10.8125 C 16.484375 -11.84375 16.34375 -12.789062 16.0625 -13.65625 C 15.78125 -14.53125 15.363281 -15.28125 14.8125 -15.90625 C 14.269531 -16.53125 13.597656 -17.015625 12.796875 -17.359375 C 11.992188 -17.703125 11.085938 -17.875 10.078125 -17.875 L 6.4375 -17.875 L 6.4375 -3.671875 L 10.078125 -3.671875 C 11.109375 -3.671875 12.023438 -3.851562 12.828125 -4.21875 C 13.628906 -4.582031 14.296875 -5.082031 14.828125 -5.71875 C 15.367188 -6.351562 15.78125 -7.109375 16.0625 -7.984375 C 16.34375 -8.859375 16.484375 -9.800781 16.484375 -10.8125 Z M 16.484375 -10.8125 "/></g></g></g><g fill="#5e17eb" fill-opacity="1"><g transform="translate(553.917177, 340.121124)"><g/></g></g><g fill="#5e17eb" fill-opacity="1"><g transform="translate(572.825768, 340.121124)"><g><path d="M 18.375 -17.875 L 11.46875 -17.875 L 11.46875 0 L 7.3125 0 L 7.3125 -17.875 L 0.421875 -17.875 L 0.421875 -21.5625 L 18.375 -21.5625 Z M 18.375 -17.875 "/></g></g></g><g fill="#5e17eb" fill-opacity="1"><g transform="translate(603.231527, 340.121124)"><g><path d="M 2.25 0 L 2.25 -21.5625 L 11.78125 -21.5625 C 12.769531 -21.5625 13.679688 -21.351562 14.515625 -20.9375 C 15.359375 -20.519531 16.082031 -19.972656 16.6875 -19.296875 C 17.300781 -18.617188 17.78125 -17.847656 18.125 -16.984375 C 18.46875 -16.128906 18.640625 -15.265625 18.640625 -14.390625 C 18.640625 -12.992188 18.289062 -11.722656 17.59375 -10.578125 C 16.894531 -9.429688 15.945312 -8.609375 14.75 -8.109375 L 19.671875 0 L 14.96875 0 L 10.5625 -7.21875 L 6.4375 -7.21875 L 6.4375 0 Z M 6.4375 -10.90625 L 11.6875 -10.90625 C 12.070312 -10.90625 12.429688 -10.992188 12.765625 -11.171875 C 13.097656 -11.359375 13.382812 -11.609375 13.625 -11.921875 C 13.875 -12.234375 14.066406 -12.597656 14.203125 -13.015625 C 14.347656 -13.441406 14.421875 -13.898438 14.421875 -14.390625 C 14.421875 -14.898438 14.335938 -15.363281 14.171875 -15.78125 C 14.015625 -16.207031 13.796875 -16.578125 13.515625 -16.890625 C 13.242188 -17.203125 12.929688 -17.441406 12.578125 -17.609375 C 12.222656 -17.785156 11.863281 -17.875 11.5 -17.875 L 6.4375 -17.875 Z M 6.4375 -10.90625 "/></g></g></g><g fill="#5e17eb" fill-opacity="1"><g transform="translate(635.032744, 340.121124)"><g><path d="M 8.375 -21.5625 L 12.078125 -21.5625 L 20.28125 0 L 15.96875 0 L 13.96875 -5.375 L 6.4375 -5.375 L 4.46875 0 L 0.15625 0 Z M 13.203125 -8.3125 L 10.234375 -16.78125 L 7.140625 -8.3125 Z M 13.203125 -8.3125 "/></g></g></g><g fill="#5e17eb" fill-opacity="1"><g transform="translate(667.046314, 340.121124)"><g><path d="M 4.46875 -21.5625 L 10.296875 -5.25 L 16.0625 -21.5625 L 20.46875 -21.5625 L 12.046875 0 L 8.53125 0 L 0.0625 -21.5625 Z M 4.46875 -21.5625 "/></g></g></g><g fill="#5e17eb" fill-opacity="1"><g transform="translate(699.1812, 340.121124)"><g><path d="M 17.21875 -3.671875 L 17.21875 0 L 2.25 0 L 2.25 -21.5625 L 16.9375 -21.5625 L 16.9375 -17.875 L 6.4375 -17.875 L 6.4375 -12.6875 L 15.515625 -12.6875 L 15.515625 -9.296875 L 6.4375 -9.296875 L 6.4375 -3.671875 Z M 17.21875 -3.671875 "/></g></g></g><g fill="#5e17eb" fill-opacity="1"><g transform="translate(729.040938, 340.121124)"><g><path d="M 2.25 0 L 2.25 -21.5625 L 6.4375 -21.5625 L 6.4375 -3.671875 L 17.421875 -3.671875 L 17.421875 0 Z M 2.25 0 "/></g></g></g></svg>